<?xml version="1.0"?>
<svg xmlns="http://www.w3.org/2000/svg" xmlns:xlink="http://www.w3.org/1999/xlink" version="1.1" id="Layer_1" x="0px" y="0px" viewBox="0 0 512 512" style="enable-background:new 0 0 512 512;" xml:space="preserve" width="512px" height="512px" class=""><g><g>
	<polygon points="451.001,241 451.001,211 462.72,211 477.72,151 394.656,151 409.283,211 421.001,211 421.001,241  " data-original="#000000" class="active-path" data-old_color="#000000" fill="#D7BEFB"/>
	<path d="M104.471,220.842c20.691-47.932,63.479-84.089,115.448-95.742l-56.466-67.308c-12.861-15.352-30.967-24.756-50.918-26.514   c-20.068-1.787-39.404,4.395-54.727,17.256C42.456,61.41,33.023,79.501,31.294,99.467c-1.758,19.951,4.365,39.39,17.256,54.741   L104.471,220.842z M106.001,84.789L127.212,106l-21.211,21.211L84.79,106L106.001,84.789z" data-original="#000000" class="active-path" data-old_color="#000000" fill="#D7BEFB"/>
	<path d="M236.936,245.724l59.561,59.561c8.767-18.356,4.138-38.284-8.679-51.101C275.22,241.564,256.075,236.703,236.936,245.724z" data-original="#000000" class="active-path" data-old_color="#000000" fill="#D7BEFB"/>
	<polygon points="400.259,421 111.744,421 96.744,451 31.001,451 31.001,512 481.001,512 481.001,451 415.259,451  " data-original="#000000" class="active-path" data-old_color="#000000" fill="#D7BEFB"/>
	<path d="M224.185,317.816c13.762,13.788,34.189,16.34,50.885,8.463l-59.564-59.564   C206.739,285.072,211.368,304.999,224.185,317.816z" data-original="#000000" class="active-path" data-old_color="#000000" fill="#D7BEFB"/>
	<path d="M256.001,151c-74.443,0-135,60.557-135,135v105h270V286C391.001,211.557,330.445,151,256.001,151z M309.029,339.027   c-29.18,29.18-76.758,29.299-106.055,0c-29.341-29.282-29.341-76.772,0-106.055c29.238-29.238,76.816-29.238,106.055,0   C338.432,262.345,338.326,309.789,309.029,339.027z" data-original="#000000" class="active-path" data-old_color="#000000" fill="#D7BEFB"/>
	<path d="M255.624,121h105.377V31H178.767c2.563,2.498,5.325,4.735,7.654,7.515L255.624,121z" data-original="#000000" class="active-path" data-old_color="#000000" fill="#D7BEFB"/>
	<polygon points="481.001,0 391.001,0 391.001,121 480.62,121  " data-original="#000000" class="active-path" data-old_color="#000000" fill="#D7BEFB"/>
</g></g> </svg>
